# xmcd
#
# Track frame offsets: 
#        150
#        19470
#        29822
#        33215
#        52730
#        67667
#        79877
#        93342
#        108445
#        120952
#        133470
#        145532
#        150887
#        162557
#        171950
#        180302
#        196232
#        209442
#        223140
#        236795
#        247840
#        265887
#        275832
#        293330
#        309325
#
# Disc length: 4415 seconds
#
# Revision: 1
# Processed by: cddbd v1.5.2PL0 Copyright (c) Steve Scherf et al.
# Submitted via: ExactAudioCopy v1.1
#
DISCID=5c113d19
DTITLE=Jimmy Martin - Songs Of A Freeborn Man_Recordings 1959-1992
DYEAR=2003
DGENRE=Bluegrass
TTITLE0=Intro_Made in the Shade [If the Tree Don't Fall]
TTITLE1=If Teardrops Were Pennies - w. Leona Williams
TTITLE2=Grant Turner Introduction
TTITLE3=20_20 Vision
TTITLE4=Lost to a Stranger - Ray Martin [vocals]
TTITLE5=Pete, the Best Coon Dog in the State of TN
TTITLE6=Ocean of Diamonds
TTITLE7=Sophronie
TTITLE8=Mansion on the Hill - w. Jett Williams
TTITLE9=Rose of Old Kentucky - w. Marty Stuart
TTITLE10=Sunny Side of the Mountain
TTITLE11=Big Jam Intro
TTITLE12=Molly and Tenbrooks
TTITLE13=Jimmy's Mule
TTITLE14=Put My Little Shoes Away
TTITLE15=Ruby - Paul Williams [Vocals]
TTITLE16=Widow Maker
TTITLE17=Don't Let Me Cross Over - w. Little Jimmy Dickens
TTITLE18=If We Never Meet Again [This Side of Heaven]
TTITLE19=Darlin' Cory - w. Ricky Skaggs
TTITLE20=It Takes One to Know One
TTITLE21=Little Maggie
TTITLE22=Honey, You Don't Know My Mind
TTITLE23=Will the Circle Be Unbroken
TTITLE24=Free Born Man_Outro
EXTD=
EXTT0=
EXTT1=
EXTT2=
EXTT3=
EXTT4=
EXTT5=
EXTT6=
EXTT7=
EXTT8=
EXTT9=
EXTT10=
EXTT11=
EXTT12=
EXTT13=
EXTT14=
EXTT15=
EXTT16=
EXTT17=
EXTT18=
EXTT19=
EXTT20=
EXTT21=
EXTT22=
EXTT23=
EXTT24=
PLAYORDER=
